<svg width="475" height="107" viewBox="0 0 475 107" fill="none" xmlns="http://www.w3.org/2000/svg">
<path d="M238.119 25.8092L216.486 71.8227L194.852 25.8092C194.363 24.7934 193.347 24.1162 192.181 24.1162H183.866L211.557 82.0939C211.783 82.6206 212.309 82.9216 212.874 82.9216H220.06C220.624 82.9216 221.151 82.583 221.377 82.0939L249.067 24.1162H240.753C239.624 24.1162 238.57 24.7934 238.081 25.8092H238.119Z" fill="#52657A"/>
<path d="M273.109 24.1166H266.75V82.9597H276.081V27.0889C276.081 25.4711 274.764 24.1542 273.146 24.1542L273.109 24.1166Z" fill="#52657A"/>
<path d="M293.689 32.4314H315.774V82.9221H325.067V32.4314H344.782C346.399 32.4314 347.716 31.1146 347.716 29.4968V24.1166H293.651V32.4314H293.689Z" fill="#52657A"/>
<path d="M383.872 24.1167H376.122C375.52 24.1167 374.993 24.4553 374.767 25.0196L350.651 82.9221H358.514C359.718 82.9221 360.809 82.1696 361.26 81.0409L366.302 68.2113H393.767L398.846 81.0409C399.298 82.1696 400.389 82.8845 401.593 82.8845H409.381L385.264 24.982C385.038 24.4176 384.512 24.079 383.91 24.079L383.872 24.1167ZM369.688 59.5956L379.997 33.3344L390.343 59.5956H369.688Z" fill="#52657A"/>
<path d="M436.282 74.2687V24.1166H426.989V82.9221H471.61C473.228 82.9221 474.545 81.6052 474.545 79.9874V74.2687H436.282Z" fill="#52657A"/>
<path d="M92.1775 66.5559H82.1318C78.821 66.5559 75.8111 64.7876 74.1557 61.9282L40.1818 3.08512C39.0907 1.16633 37.0589 0 34.8768 0H0L59.9718 103.878C62.3421 107.979 68.2488 107.979 70.6191 103.878L84.5021 79.837L92.1775 66.5183V66.5559Z" fill="url(#paint0_radial_1263_3181)"/>
<path d="M145.339 66.5557L108.694 3.08496C106.324 -1.01599 100.417 -1.01599 98.047 3.08496L84.164 27.1263L76.4886 40.4451H86.5343C89.8451 40.4451 92.855 42.2134 94.5104 45.0727L105.158 63.5082C106.249 65.427 108.281 66.5934 110.463 66.5934H145.339V66.5557Z" fill="#0077FF"/>
<defs>
<radialGradient id="paint0_radial_1263_3181" cx="0" cy="0" r="1" gradientUnits="userSpaceOnUse" gradientTransform="translate(65.54 104.556) scale(105.91 105.91)">
<stop stop-color="#00C7FF"/>
<stop offset="0.4" stop-color="#0055FF"/>
<stop offset="1" stop-color="#001FFF"/>
</radialGradient>
</defs>
</svg>
